<?xml version="1.0" encoding="UTF-8"?>
<svg width="44px" height="45px" viewBox="0 0 44 45" version="1.1" xmlns="http://www.w3.org/2000/svg" xmlns:xlink="http://www.w3.org/1999/xlink">
    <title>EC29FFDB-1061-4F56-98EB-DB7ACE55BBA5</title>
    <g id="Desktop" stroke="none" stroke-width="1" fill="none" fill-rule="evenodd">
        <g id="MegaTalk_Landing-page_Final" transform="translate(-194.000000, -3203.000000)">
            <g id="Group-23" transform="translate(0.000000, 2901.468750)">
                <g id="lift_arrow" transform="translate(195.000000, 303.000000)">
                    <circle id="Oval" stroke="#006BB6" stroke-width="1.8" cx="21" cy="21" r="21"></circle>
                    <path d="M27.9271795,17.5162595 L27.4519144,17.0376915 C27.3023398,16.8882349 27.1033395,16.8058981 26.8906558,16.8058981 C26.67809,16.8058981 26.4788537,16.8882349 26.3292791,17.0376915 L20.9077894,22.4594172 L15.4800477,17.0316755 C15.330709,16.8822189 15.1314728,16.8 14.918907,16.8 C14.7063412,16.8 14.506987,16.8822189 14.3575304,17.0316755 L13.8821473,17.5072944 C13.5726176,17.8165883 13.5726176,18.3203999 13.8821473,18.6296938 L20.3445254,25.1153102 C20.4938641,25.2646489 20.6928644,25.3698701 20.9073175,25.3698701 L20.9097947,25.3698701 C21.1224785,25.3698701 21.3214788,25.2645309 21.4708175,25.1153102 L27.9271795,18.64727 C28.0767541,18.4979313 28.158855,18.292915 28.1590909,18.0803492 C28.1590909,17.8676654 28.0767541,17.6654802 27.9271795,17.5162595 Z" id="Path" fill="#006BB6" fill-rule="nonzero" transform="translate(20.904545, 21.084935) rotate(90.000000) translate(-20.904545, -21.084935) "></path>
                </g>
            </g>
        </g>
    </g>
</svg>