<?xml version="1.0" encoding="UTF-8"?>
<svg width="19px" height="18px" viewBox="0 0 19 18" version="1.1" xmlns="http://www.w3.org/2000/svg" xmlns:xlink="http://www.w3.org/1999/xlink">
    <title>Unmute</title>
    <g id="Desktop" stroke="none" stroke-width="1" fill="none" fill-rule="evenodd">
        <g id="MegaTalk_Landing-page_Final" transform="translate(-600.000000, -2749.000000)" fill="#9BBC30" fill-rule="nonzero">
            <g id="Group-12-Copy-4" transform="translate(127.000000, 2186.000000)">
                <g id="Unmute" transform="translate(473.716518, 563.000000)">
                    <g id="Group-3" transform="translate(0.283482, 0.000000)">
                        <path d="M1.93303571,0.207589286 C1.65625,-0.0691964286 1.20089286,-0.0691964286 0.924107143,0.207589286 C0.647321429,0.484375 0.647321429,0.939732143 0.924107143,1.21651786 L16.6383929,16.9308036 C16.7767857,17.0691964 16.9598214,17.140625 17.1428571,17.140625 C17.3258929,17.140625 17.5089286,17.0691964 17.6473214,16.9308036 C17.9241071,16.6540179 17.9241071,16.1986607 17.6473214,15.921875 L1.93303571,0.207589286 Z" id="Path"></path>
                        <path d="M6.96428571,3.22991071 L9.38839286,5.65401786 C9.52678571,5.79241071 9.75446429,5.79241071 9.89285714,5.65401786 C9.95982143,5.58705357 9.99553571,5.49776786 9.99553571,5.39955357 L9.99553571,2.52008929 C10,2.11830357 9.78125,1.74330357 9.42857143,1.55133929 C9.06696429,1.35491071 8.62053571,1.38616071 8.29017857,1.63169643 L8.25892857,1.65401786 L6.98660714,2.69419643 C6.83482143,2.81919643 6.8125,3.04241071 6.9375,3.19866071 C6.94642857,3.21205357 6.95535714,3.22098214 6.96428571,3.22991071 L6.96428571,3.22991071 Z" id="Path"></path>
                        <path d="M2.88839286,5.20758929 C2.75446429,5.07366071 2.57142857,4.99776786 2.38392857,4.99776786 L1.07142857,4.99776786 C0.477678571,4.99776786 0,5.47544643 0,6.06919643 L0,11.0691964 C0,11.6629464 0.477678571,12.140625 1.07142857,12.140625 L4.1875,12.140625 L8.29464286,15.5022321 C8.62946429,15.7522321 9.08482143,15.7834821 9.45089286,15.578125 C9.79464286,15.3816964 10.0089286,15.0111607 10.0045327,14.6183036 L10.0045327,12.6138393 C10.0045327,12.4263393 9.92857143,12.2433036 9.79464286,12.109375 L2.88839286,5.20758929 Z" id="Path"></path>
                    </g>
                    <path d="M13.7834821,12.2586151 C13.5233907,12.2584766 13.281939,12.1235961 13.1454499,11.9021952 C13.0089608,11.6807944 12.9969223,11.4044853 13.1136384,11.1720526 C13.5584821,10.2861151 13.7839509,9.39080259 13.7839509,8.50861509 C13.7839509,7.60111509 13.5655134,6.73111509 13.1159821,5.84939634 C12.9368101,5.48184279 13.0850737,5.03850491 13.4493093,4.85268081 C13.813545,4.66685672 14.2595049,4.80703641 14.4519196,5.16783384 C15.0116071,6.26611509 15.2834821,7.35877134 15.2834821,8.50861509 C15.2834821,9.62564634 15.0022321,10.7483026 14.4537946,11.8451776 C14.3265113,12.0986544 14.067122,12.2586151 13.7834821,12.2586151 L13.7834821,12.2586151 Z" id="Path"></path>
                    <path d="M16.0334821,14.5086159 C15.7654191,14.5088429 15.5176152,14.3659837 15.3834851,14.1338912 C15.2493549,13.9017987 15.2492942,13.6157645 15.3833259,13.3836151 C16.2678571,11.8390838 16.7834821,10.5453338 16.7834821,8.50861509 C16.7834821,6.44049009 16.2706696,5.15611509 15.3852009,3.63595884 C15.1952532,3.27970749 15.3213949,2.83701918 15.6705916,2.63439424 C16.0197882,2.4317693 16.4667229,2.54192411 16.6817634,2.88361509 C17.6703571,4.57861509 18.2834821,6.11236509 18.2834821,8.50861509 C18.2834821,10.8692401 17.6712946,12.4104901 16.6841071,14.1336151 C16.5499352,14.3660084 16.3018264,14.5090106 16.0334821,14.5086159 L16.0334821,14.5086159 Z" id="Path"></path>
                </g>
            </g>
        </g>
    </g>
</svg>