<?xml version="1.0" encoding="UTF-8"?>
<svg width="28px" height="28px" viewBox="0 0 28 28" version="1.1" xmlns="http://www.w3.org/2000/svg" xmlns:xlink="http://www.w3.org/1999/xlink">
    <title>play-button</title>
    <g id="Desktop" stroke="none" stroke-width="1" fill="none" fill-rule="evenodd">
        <g id="MegaTalk_Landing-page_Final" transform="translate(-146.000000, -2743.000000)" fill-rule="nonzero">
            <g id="Group-12-Copy-4" transform="translate(127.000000, 2186.000000)">
                <g id="play-button" transform="translate(19.000000, 557.000000)">
                    <path d="M14,0 C6.26811719,0 0,6.26800781 0,14 C0,21.7319922 6.26811719,28 14,28 C21.7318828,28 28,21.7319922 28,14 C28,6.26800781 21.7318828,0 14,0 Z" id="Shape" fill="#006BB6" opacity="0.800000012"></path>
                    <g id="pause" transform="translate(10.000000, 8.000000)" fill="#FFFFFF">
                        <path d="M5.33333333,0 L7.72995781,0 C7.87908756,0 8,0.120912439 8,0.270042194 L8,10.7679325 C8,10.9170622 7.87908756,11.0379747 7.72995781,11.0379747 L5.33333333,11.0379747 C5.18420358,11.0379747 5.06329114,10.9170622 5.06329114,10.7679325 L5.06329114,0.270042194 C5.06329114,0.120912439 5.18420358,0 5.33333333,0 Z" id="Path"></path>
                        <path d="M0.270042194,0 L2.66666667,0 C2.81579642,0 2.93670886,0.120912439 2.93670886,0.270042194 L2.93670886,10.7679325 C2.93670886,10.9170622 2.81579642,11.0379747 2.66666667,11.0379747 L0.270042194,11.0379747 C0.120912439,11.0379747 0,10.9170622 0,10.7679325 L0,0.270042194 C0,0.120912439 0.120912439,0 0.270042194,0 Z" id="Path"></path>
                    </g>
                </g>
            </g>
        </g>
    </g>
</svg>